# xmcd
#
# Track frame offsets:
#	150
#	10437
#	30536
#	45614
#	61466
#	74258
#	91975
#	102063
#	129212
#	147624
#	163134
#
# Disc length: 2516 seconds
#
# Revision: 0
# Processed by: cddbd v1.5.1PL2 Copyright (c) Steve Scherf et al.
# Submitted via: dBpowerAMP V4.0
#
DISCID=9409d20b
DTITLE=Gary Heffern - Consolation
DYEAR=1900
DGENRE=
TTITLE0=Ghosts On The Screen
TTITLE1=Consolation
TTITLE2=Next Of Kin (All His Children)
TTITLE3=(I Am Your) Destroyer
TTITLE4=Down Time
TTITLE5=Friendly Fire
TTITLE6=First Kiss
TTITLE7=La La Land
TTITLE8=That's The Beauty (Of The Little Things In Life)
TTITLE9=Junkie's Lament (Shelter For An Evening)
TTITLE10=Growin' Up
EXTD=
EXTT0=
EXTT1=
EXTT2=
EXTT3=
EXTT4=
EXTT5=
EXTT6=
EXTT7=
EXTT8=
EXTT9=
EXTT10=
PLAYORDER=
